<?xml version="1.0" encoding="utf-8"?>

<!DOCTYPE svg PUBLIC "-//W3C//DTD SVG 1.1//EN" "http://www.w3.org/Graphics/SVG/1.1/DTD/svg11.dtd">
<svg version="1.1" fill="#999999" xmlns="http://www.w3.org/2000/svg" xmlns:xlink="http://www.w3.org/1999/xlink" x="0px" y="0px" viewBox="0 0 1000 1000" enable-background="new 0 0 1000 1000" xml:space="preserve">
<metadata> Svg Vector Icons : http://www.onlinewebfonts.com/icon </metadata>
<g><g><path d="M525,952.8h15.2c9.9-2.5,82.4-24.6,129.4-133.3c-24.9-68-43.7-170.7-42.8-325.8c0.6-29.3,7.5-454.6-141.2-462.5h-59.5H245.3c5.9,4.8,12.4,10.1,19.6,16.1c28,23.1,48.7,51.4,63.8,81.7c18,36.1,28.2,75,33.7,111c13.5,62.7,22.1,144.2,21.5,250.3C383.2,519.7,376.3,945,525,952.8z"/><path d="M274.8,386.3c3.1-109.5,21.6-185.5,44.8-238.3c-14.5-33.1-35.3-64.1-64.9-88.5c-14.6-12-25.7-21.3-35.3-28.3h-52.7C12.7,39.4,10,386.3,10,386.3l170.2-103.6L274.8,386.3z"/><path d="M725.2,613.7c-2.8,101.6-22.2,174.4-47.4,226.5c-30.6,63.4-69.7,96.1-98.1,112.7c-22,12.8-37.6,15.9-37.6,15.9h291.2c154-8.1,156.7-355,156.7-355L851.6,733.2L725.2,613.7z"/></g><g></g><g></g><g></g><g></g><g></g><g></g><g></g><g></g><g></g><g></g><g></g><g></g><g></g><g></g><g></g></g>
</svg>